<?xml version="1.0" encoding="UTF-8"?>
<svg width="26px" height="26px" viewBox="0 0 26 26" version="1.1" xmlns="http://www.w3.org/2000/svg" xmlns:xlink="http://www.w3.org/1999/xlink">
    <title>ico-newfolder</title>
    <g id="Page-1" stroke="none" stroke-width="1" fill="none" fill-rule="evenodd">
        <g id="ico-newfolder">
            <rect id="Rectangle" x="0" y="0" width="26" height="26"></rect>
            <path d="M21.125,7.16666667 L13.625,7.16666667 L11.4910156,4.46361979 C11.2566406,4.16674479 10.9386719,4 10.6070313,4 L4.875,4 C3.83945312,4 3,5.06330729 3,6.375 L3,20.625 C3,21.9366927 3.83945312,23 4.875,23 L21.125,23 C22.1605469,23 23,21.9366927 23,20.625 L23,9.54166667 C23,8.22997396 22.1605469,7.16666667 21.125,7.16666667 Z M21,20.8888889 L5,20.8888889 L5,6.11111111 L10.3892308,6.11111111 L12.4903846,8.91427083 C12.7211538,9.2221412 13.0342308,9.39506173 13.3607692,9.39506173 L21,9.39506173 L21,20.8888889 Z" id="Shape" fill="#3C434D" fill-rule="nonzero"></path>
            <rect id="Rectangle" fill="#00BFA5" x="12" y="11" width="2" height="8"></rect>
            <rect id="Rectangle" fill="#00BFA5" transform="translate(13.000000, 15.000000) rotate(-270.000000) translate(-13.000000, -15.000000) " x="12" y="11" width="2" height="8"></rect>
        </g>
    </g>
</svg>