<?xml version="1.0" encoding="UTF-8"?>
<svg width="48px" height="48px" viewBox="0 0 48 48" version="1.1" xmlns="http://www.w3.org/2000/svg" xmlns:xlink="http://www.w3.org/1999/xlink">
    <title>Group 15 Copy 7</title>
    <defs>
        <linearGradient x1="50%" y1="0%" x2="50%" y2="100%" id="linearGradient-1">
            <stop stop-color="#FFFFFF" offset="0%"></stop>
            <stop stop-color="#FAFAFA" offset="100%"></stop>
        </linearGradient>
        <path d="M12,8 L36,8 C37.1045695,8 38,8.8954305 38,10 L38,38 C38,39.1045695 37.1045695,40 36,40 L12,40 C10.8954305,40 10,39.1045695 10,38 L10,10 C10,8.8954305 10.8954305,8 12,8 Z" id="path-2"></path>
        <filter x="-25.0%" y="-15.6%" width="150.0%" height="143.8%" filterUnits="objectBoundingBox" id="filter-3">
            <feOffset dx="0" dy="2" in="SourceAlpha" result="shadowOffsetOuter1"></feOffset>
            <feGaussianBlur stdDeviation="2" in="shadowOffsetOuter1" result="shadowBlurOuter1"></feGaussianBlur>
            <feColorMatrix values="0 0 0 0 0   0 0 0 0 0   0 0 0 0 0  0 0 0 0.1 0" type="matrix" in="shadowBlurOuter1"></feColorMatrix>
        </filter>
    </defs>
    <g id="Page-1" stroke="none" stroke-width="1" fill="none" fill-rule="evenodd">
        <g id="Task---1" transform="translate(-61.000000, -393.000000)">
            <g id="small/compressed-copy-2" transform="translate(61.000000, 393.000000)">
                <path d="M12,6 L36,6 C38.209139,6 40,7.790861 40,10 L40,38 C40,40.209139 38.209139,42 36,42 L12,42 C9.790861,42 8,40.209139 8,38 L8,10 C8,7.790861 9.790861,6 12,6 Z" id="Rectangle-2" fill="#FDCDCD"></path>
                <g id="Rectangle-3">
                    <use fill="black" fill-opacity="1" filter="url(#filter-3)" xlink:href="#path-2"></use>
                    <use fill="url(#linearGradient-1)" fill-rule="evenodd" xlink:href="#path-2"></use>
                </g>
                <path d="M16.0449581,34.0466245 C15.0712649,34.0466245 14.4985042,33.3593116 14.2693999,32.9583792 C14.0402957,32.5574467 13.524811,31.2973731 15.0712649,29.7509192 C15.7013017,29.1208825 16.8468231,27.918085 19.8251787,26.8871157 C20.2261112,26.0852508 20.6270437,25.2261097 21.0279762,24.3096926 C21.4861848,23.2787233 21.8871173,22.4195823 22.1734976,21.6177173 C20.9707001,19.6703309 20.7415959,18.2384292 20.7988719,16.5774231 C20.856148,14.6873128 22.1162215,14 22.9180865,14 C23.4908472,14 24.980025,14.5154846 25.0373011,16.9783556 C25.0945772,17.9520488 24.922749,19.0975702 24.0636079,21.4458891 C24.6936447,22.3050301 25.4955097,23.3359994 26.5264789,24.4815208 C26.8701353,24.8824533 27.2137918,25.2261097 27.5001721,25.5124901 C30.707632,25.3979379 32.311362,26.0852508 32.8841227,26.4289072 C34.2014723,27.2307722 34.0869202,28.5481218 33.8578159,29.1208825 C33.6859877,29.579091 33.0559509,30.380956 31.7386013,30.380956 C31.4522209,30.380956 31.1085645,30.3236799 30.7649081,30.2664039 C29.7339388,29.9800235 28.9893499,29.579091 26.7555832,27.2307722 C25.7246139,27.2880482 24.6363686,27.4598764 23.4908472,27.6889807 C22.5744301,27.8608089 21.715289,28.0899132 20.9707001,28.3190175 C18.5078291,33.1874834 17.3050317,33.7029681 16.9040992,33.8747963 C16.6749949,33.9893484 16.3313385,34.0466245 16.0449581,34.0466245 Z M18.5651052,29.2927107 C17.3050317,29.9227475 16.6749949,30.5527842 16.2740624,30.9537167 C15.5867496,31.6410296 15.7013017,32.041962 15.7013017,32.041962 L15.8158538,32.2137903 C15.8158538,32.2137903 15.8731299,32.3283424 15.987682,32.3283424 C16.0449581,32.3283424 16.1022342,32.3283424 16.2167863,32.2710663 C16.3886145,32.2137903 17.0759274,31.8701338 18.5651052,29.2927107 Z M29.2184542,27.1734961 C30.3639756,28.2617414 30.7649081,28.4335696 31.2803927,28.5481218 C31.4522209,28.6053978 31.6240491,28.6053978 31.7958774,28.6053978 C32.1968098,28.6053978 32.311362,28.4335696 32.311362,28.4335696 C32.3686381,28.2044654 32.311362,27.9753611 32.0249816,27.8035329 C31.8531534,27.6889807 31.0512884,27.2880482 29.2184542,27.1734961 Z M22.1734976,26.1425268 L22.1162215,26.257079 C22.517154,26.1425268 22.8608104,26.0852508 23.2617429,26.0279747 C24.0063318,25.9134226 24.6936447,25.7415943 25.3809575,25.6843183 L25.3236815,25.6270422 L25.3236815,25.6270422 C25.3236815,25.6270422 25.3236815,25.6270422 25.3236815,25.6270422 C24.5790925,24.8251772 23.9490558,24.0805883 23.3762951,23.3359994 L23.319019,23.3932755 L23.319019,23.3359994 C23.0899147,23.851484 22.8608104,24.3669687 22.6317062,24.9970054 C22.459878,25.3979379 22.2880497,25.7988704 22.1734976,26.1425268 L22.1734976,26.1425268 Z M22.9180865,15.7182821 C22.6889822,15.7755582 22.5744301,16.1192146 22.5744301,16.5774231 C22.5744301,17.4365642 22.5744301,18.2957052 23.0326387,19.3839506 C23.4335711,18.123877 23.4335711,17.4938403 23.4335711,17.0356317 C23.3762951,16.1764907 23.0899147,15.8328342 22.9180865,15.7182821 Z" id="Shape-Copy" fill="#F94646" fill-rule="nonzero"></path>
                <rect id="24px-safe" x="0" y="0" width="48" height="48"></rect>
            </g>
        </g>
    </g>
</svg>