<?xml version="1.0" encoding="UTF-8"?>
<svg width="24px" height="24px" viewBox="0 0 24 24" version="1.1" xmlns="http://www.w3.org/2000/svg" xmlns:xlink="http://www.w3.org/1999/xlink">
    <title>Group 9</title>
    <g id="Page-1" stroke="none" stroke-width="1" fill="none" fill-rule="evenodd">
        <g id="Task---1" transform="translate(-479.000000, -222.000000)">
            <g id="Group-9" transform="translate(479.000000, 222.000000)">
                <rect id="Rectangle" x="0" y="0" width="24" height="24"></rect>
                <path d="M8,17 L8,19 L4,19 L4,17 L8,17 Z M20,17 L20,19 L10,19 L10,17 L20,17 Z M8,11 L8,13 L4,13 L4,11 L8,11 Z M20,11 L20,13 L10,13 L10,11 L20,11 Z M8,5 L8,7 L4,7 L4,5 L8,5 Z M20,5 L20,7 L10,7 L10,5 L20,5 Z" id="Combined-Shape" fill="#3C434D"></path>
            </g>
        </g>
    </g>
</svg>