<?xml version="1.0" encoding="UTF-8"?>
<svg width="26px" height="26px" viewBox="0 0 26 26" version="1.1" xmlns="http://www.w3.org/2000/svg" xmlns:xlink="http://www.w3.org/1999/xlink">
    <title>ico-gridview</title>
    <g id="Page-1" stroke="none" stroke-width="1" fill="none" fill-rule="evenodd">
        <g id="ico-gridview">
            <rect id="Rectangle" x="0" y="0.00325" width="26" height="26"></rect>
            <path d="M9,17 L9,21 L5,21 L5,17 L9,17 Z M15,17 L15,21 L11,21 L11,17 L15,17 Z M21,17 L21,21 L17,21 L17,17 L21,17 Z M9,11 L9,15 L5,15 L5,11 L9,11 Z M15,11 L15,15 L11,15 L11,11 L15,11 Z M21,11 L21,15 L17,15 L17,11 L21,11 Z M9,5 L9,9 L5,9 L5,5 L9,5 Z M15,5 L15,9 L11,9 L11,5 L15,5 Z M21,5 L21,9 L17,9 L17,5 L21,5 Z" id="Combined-Shape" fill="#9EA1A6"></path>
        </g>
    </g>
</svg>