<?xml version="1.0" encoding="UTF-8"?>
<svg width="35px" height="35px" viewBox="0 0 35 35" version="1.1" xmlns="http://www.w3.org/2000/svg" xmlns:xlink="http://www.w3.org/1999/xlink">
    <title>Icon / Quit / Mono</title>
    <defs>
        <filter x="-18.1%" y="-8.8%" width="137.2%" height="118.1%" filterUnits="objectBoundingBox" id="filter-1">
            <feOffset dx="0" dy="1" in="SourceAlpha" result="shadowOffsetOuter1"></feOffset>
            <feGaussianBlur stdDeviation="4" in="shadowOffsetOuter1" result="shadowBlurOuter1"></feGaussianBlur>
            <feColorMatrix values="0 0 0 0 0   0 0 0 0 0   0 0 0 0 0  0 0 0 0.1 0" type="matrix" in="shadowBlurOuter1" result="shadowMatrixOuter1"></feColorMatrix>
            <feMerge>
                <feMergeNode in="shadowMatrixOuter1"></feMergeNode>
                <feMergeNode in="SourceGraphic"></feMergeNode>
            </feMerge>
        </filter>
        <linearGradient x1="50%" y1="0%" x2="50%" y2="97.4589445%" id="linearGradient-2">
            <stop stop-color="#FFFFFF" offset="0%"></stop>
            <stop stop-color="#EFEFEF" offset="100%"></stop>
        </linearGradient>
        <linearGradient x1="50%" y1="0%" x2="50%" y2="100%" id="linearGradient-3">
            <stop stop-color="#A6A6A6" stop-opacity="0.5" offset="0%"></stop>
            <stop stop-color="#888888" stop-opacity="0.5" offset="100%"></stop>
        </linearGradient>
    </defs>
    <g id="Page-1" stroke="none" stroke-width="1" fill="none" fill-rule="evenodd">
        <g id="Task---4" transform="translate(-1024.000000, -742.000000)">
            <g id="Group-6" filter="url(#filter-1)" transform="translate(1013.000000, 412.000000)">
                <g id="Group" transform="translate(16.000000, 334.000000)">
                    <rect id="Rectangle" stroke="url(#linearGradient-3)" fill="url(#linearGradient-2)" x="3.5" y="3.5" width="18" height="18" rx="9"></rect>
                    <path d="M11.0008328,7.20679702 L10.9999135,8.25608915 C9.2521701,8.8738682 8,10.5407041 8,12.5 C8,14.9852814 10.0147186,17 12.5,17 C14.9852814,17 17,14.9852814 17,12.5 C17,10.5410798 15.7483101,8.87450746 14.0010919,8.25644465 L14.0001762,7.20708232 C16.3085909,7.86006936 18,9.9825098 18,12.5 C18,15.5375661 15.5375661,18 12.5,18 C9.46243388,18 7,15.5375661 7,12.5 C7,9.98214303 8.69190202,7.85945095 11.0008328,7.20679702 Z M12.5,7 C12.7761424,7 13,7.22385763 13,7.5 L13,12.5 C13,12.7761424 12.7761424,13 12.5,13 C12.2238576,13 12,12.7761424 12,12.5 L12,7.5 C12,7.22385763 12.2238576,7 12.5,7 Z" id="Combined-Shape" fill="#F0373A" fill-rule="nonzero"></path>
                </g>
            </g>
        </g>
    </g>
</svg>