<?xml version="1.0" encoding="UTF-8"?>
<svg width="36px" height="36px" viewBox="0 0 36 36" version="1.1" xmlns="http://www.w3.org/2000/svg" xmlns:xlink="http://www.w3.org/1999/xlink">
    <title>Icon / website / Mono</title>
    <defs>
        <filter x="-18.1%" y="-8.8%" width="137.2%" height="118.1%" filterUnits="objectBoundingBox" id="filter-1">
            <feOffset dx="0" dy="1" in="SourceAlpha" result="shadowOffsetOuter1"></feOffset>
            <feGaussianBlur stdDeviation="4" in="shadowOffsetOuter1" result="shadowBlurOuter1"></feGaussianBlur>
            <feColorMatrix values="0 0 0 0 0   0 0 0 0 0   0 0 0 0 0  0 0 0 0.1 0" type="matrix" in="shadowBlurOuter1" result="shadowMatrixOuter1"></feColorMatrix>
            <feMerge>
                <feMergeNode in="shadowMatrixOuter1"></feMergeNode>
                <feMergeNode in="SourceGraphic"></feMergeNode>
            </feMerge>
        </filter>
        <linearGradient x1="50%" y1="0%" x2="50%" y2="100%" id="linearGradient-2">
            <stop stop-color="#F2F9FB" offset="0%"></stop>
            <stop stop-color="#BBE0F1" offset="100%"></stop>
        </linearGradient>
    </defs>
    <g id="Page-1" stroke="none" stroke-width="1" fill="none" fill-rule="evenodd">
        <g id="Task---4" transform="translate(-1023.000000, -451.000000)">
            <g id="Group-6" filter="url(#filter-1)" transform="translate(1013.000000, 412.000000)">
                <g id="Group" transform="translate(16.000000, 44.000000)">
                    <path d="M2,12 C2,17.525 6.475,22 12,22 C17.525,22 22,17.525 22,12 C22,6.475 17.525,2 12,2 C6.475,2 2,6.475 2,12 L2,12 Z" id="Fill-57-Copy" fill="url(#linearGradient-2)"></path>
                    <path d="M8.07538621,3.20168659 C8.21484327,3.55948445 7.92588825,3.99172346 6.7053601,5.01348847 C5.16463855,6.3042022 4.89911232,7.39200373 5.19699259,9.52198155 C5.49598851,11.6507587 6.66296515,11.7143939 7.39595144,13.3244842 C8.12782206,14.9345746 7.46177517,16.3033315 8.57966292,19.0708618 C9.06832044,20.1754727 9.69978199,20.8658544 9.95861429,21.4205612 C10.0184646,21.5478365 10.0088606,21.6824096 9.95431855,21.7897342 C5.41037083,20.8461618 1.99952122,16.82292 1.99952122,11.999367 L2.001,12.108 L2.00409762,11.8845143 C2.11974586,7.89542136 4.41634775,4.50514583 7.65032111,3.02759032 C7.81209129,2.95434982 8.00733117,3.02759032 8.07538621,3.20168659 Z M12.1417591,2.00035677 C14.1004636,2.02763073 15.9225985,2.61735234 17.4540313,3.61538917 C18.9218096,4.61577377 20.0989128,6.02516228 20.8281819,7.68361562 C21.3256999,8.8135192 20.6952832,10.1402298 19.5116902,10.4180749 C19.503739,10.4203903 19.4957878,10.421548 19.4878366,10.4238634 C18.040718,10.7572775 17.3512353,11.3465408 18.9891827,12.763551 C19.3821992,13.0286616 19.8047487,13.2879837 20.1989011,13.5924557 C20.856579,14.1006808 21.075805,15.0152544 20.718001,15.7735401 C19.4912442,18.3713922 17.1513194,20.3163082 14.3275071,20.973875 C13.7391182,21.1104822 13.1473217,20.6821376 13.0882556,20.0697206 C13.0189666,19.2593389 13.6357526,17.6096334 14.8454711,16.326915 C17.0297796,14.0312195 15.363435,12.8422738 13.2506873,12.5505364 C11.1368037,12.258799 9.67264685,13.1189613 9.15354701,11.6845857 C8.63444717,10.2513678 9.56814535,9.63547775 9.88164984,9.53244351 C10.1951543,9.42940927 10.7971738,9.09252203 11.7751716,10.2860985 C12.1840905,10.7028662 12.7418104,10.7723275 12.7293157,10.2490524 C12.716821,9.72577743 12.079589,8.67228125 12.7713435,7.84221889 C13.4619621,7.0133142 15.0419793,6.59770418 14.9704185,5.36708172 C14.8999936,4.13645927 13.8742886,3.62128807 12.656619,3.94544074 C11.4378135,4.26843572 10.7812714,4.51039253 10.4359621,3.44647716 C10.3587219,3.2091511 10.2939764,2.97645579 10.2394539,2.75765274 C10.1701649,2.47749222 10.347363,2.19270095 10.626791,2.14292036 C11.0152639,2.07345908 11.4107652,2.02744097 11.8132947,2.00877325 Z" id="Combined-Shape" fill-opacity="0.5" fill="#2BA6DE"></path>
                    <path d="M12,2.5 C14.624375,2.5 16.999405,3.56276181 18.7183216,5.28167839 C20.4372382,7.00059497 21.5,9.375625 21.5,12 C21.5,14.624375 20.4372382,16.999405 18.7183216,18.7183216 C16.999405,20.4372382 14.624375,21.5 12,21.5 C9.375625,21.5 7.00059497,20.4372382 5.28167839,18.7183216 C3.56276181,16.999405 2.5,14.624375 2.5,12 C2.5,9.375625 3.56276181,7.00059497 5.28167839,5.28167839 C7.00059497,3.56276181 9.375625,2.5 12,2.5 L12,2.5 Z" id="Fill-57-Copy" stroke-opacity="0.3" stroke="#2BA6DE"></path>
                </g>
            </g>
        </g>
    </g>
</svg>