<?xml version="1.0" encoding="UTF-8"?>
<svg width="16px" height="16px" viewBox="0 0 16 16" version="1.1" xmlns="http://www.w3.org/2000/svg" xmlns:xlink="http://www.w3.org/1999/xlink">
    <title>ico-search</title>
    <g id="Page-1" stroke="none" stroke-width="1" fill="none" fill-rule="evenodd">
        <g id="ico-search">
            <g id="Frame_-_24px">
                <rect id="Rectangle" x="0" y="0" width="16" height="16.0006667"></rect>
            </g>
            <g id="Filled_Icons" transform="translate(1.000000, 1.000000)" fill="#7D7D7D" fill-rule="nonzero">
                <g id="Group">
                    <path d="M14.6004545,12.6722727 L11.9011364,9.97295455 C12.5727273,8.93659091 12.9361364,7.73045455 12.9361364,6.46772727 C12.9354545,2.89363636 10.0425,0 6.46772727,0 C2.89363636,0 0,2.89295455 0,6.46772727 C0,10.0411364 2.89295455,12.9354545 6.46772727,12.9354545 C7.73113636,12.9354545 8.93727273,12.5720455 9.97227273,11.9011364 L12.6709091,14.5997727 C13.2054545,15.1356818 14.0679545,15.1343182 14.5997727,14.6004545 C15.1315909,14.0686364 15.1315909,13.2034091 14.6004545,12.6722727 Z M1.36363636,6.46772727 C1.36363636,3.64704545 3.64636364,1.36431818 6.46772727,1.36431818 C9.28704545,1.36431818 11.5718182,3.64636364 11.5718182,6.46772727 C11.5718182,7.83068182 11.0406818,9.1125 10.0759091,10.0759091 C9.11181818,11.0406818 7.83068182,11.5711365 6.46704545,11.5711365 C3.64840909,11.5718182 1.36363636,9.28840909 1.36363636,6.46772727 Z" id="Shape"></path>
                </g>
            </g>
        </g>
    </g>
</svg>