<?xml version="1.0" encoding="UTF-8"?>
<svg width="26px" height="26px" viewBox="0 0 26 26" version="1.1" xmlns="http://www.w3.org/2000/svg" xmlns:xlink="http://www.w3.org/1999/xlink">
    <title>ico-listview</title>
    <g id="Page-1" stroke="none" stroke-width="1" fill="none" fill-rule="evenodd">
        <g id="ico-listview">
            <rect id="Rectangle" x="0" y="0.00325" width="26" height="26"></rect>
            <path d="M9,18 L9,20 L5,20 L5,18 L9,18 Z M21,18 L21,20 L11,20 L11,18 L21,18 Z M9,12 L9,14 L5,14 L5,12 L9,12 Z M21,12 L21,14 L11,14 L11,12 L21,12 Z M9,6 L9,8 L5,8 L5,6 L9,6 Z M21,6 L21,8 L11,8 L11,6 L21,6 Z" id="Combined-Shape" fill="#9EA1A6"></path>
        </g>
    </g>
</svg>