<?xml version="1.0" encoding="UTF-8"?>
<svg width="37px" height="34px" viewBox="0 0 37 34" version="1.1" xmlns="http://www.w3.org/2000/svg" xmlns:xlink="http://www.w3.org/1999/xlink">
    <title>Icon / Sync / Mono</title>
    <defs>
        <filter x="-18.1%" y="-8.8%" width="137.2%" height="118.1%" filterUnits="objectBoundingBox" id="filter-1">
            <feOffset dx="0" dy="1" in="SourceAlpha" result="shadowOffsetOuter1"></feOffset>
            <feGaussianBlur stdDeviation="4" in="shadowOffsetOuter1" result="shadowBlurOuter1"></feGaussianBlur>
            <feColorMatrix values="0 0 0 0 0   0 0 0 0 0   0 0 0 0 0  0 0 0 0.1 0" type="matrix" in="shadowBlurOuter1" result="shadowMatrixOuter1"></feColorMatrix>
            <feMerge>
                <feMergeNode in="shadowMatrixOuter1"></feMergeNode>
                <feMergeNode in="SourceGraphic"></feMergeNode>
            </feMerge>
        </filter>
    </defs>
    <g id="Page-1" stroke="none" stroke-width="1" fill="none" fill-rule="evenodd">
        <g id="Task---4" transform="translate(-1023.000000, -532.000000)">
            <g id="Group-6" filter="url(#filter-1)" transform="translate(1013.000000, 412.000000)">
                <g id="Group" transform="translate(16.000000, 125.000000)">
                    <path d="M2,8 L20,8 L20,19 C20,19.5522847 19.5522847,20 19,20 L3,20 C2.44771525,20 2,19.5522847 2,19 L2,8 L2,8 Z" id="Rectangle" fill="#F8E9B1"></path>
                    <path d="M3,4 L9.17157288,4 C9.70200585,4 10.2107137,4.21071368 10.5857864,4.58578644 L11.4142136,5.41421356 C11.7892863,5.78928632 12.2979941,6 12.8284271,6 L19,6 C19.5522847,6 20,6.44771525 20,7 L20,8 L20,8 L2,8 L2,5 C2,4.44771525 2.44771525,4 3,4 Z" id="Rectangle" fill="#F5DF8E"></path>
                    <path d="M9.17157288,4.5 C9.56939761,4.5 9.95092848,4.65803526 10.232233,4.93933983 L10.232233,4.93933983 L11.0606602,5.76776695 C11.5295011,6.2366079 12.1653859,6.5 12.8284271,6.5 L12.8284271,6.5 L19,6.5 L19.5,19 L3,19.5 L2.5,5 Z" id="Rectangle" stroke="#EBC01E"></path>
                    <rect id="Rectangle-2" fill="#EBC01E" x="3" y="8" width="16" height="1"></rect>
                    <path d="M14.7478853,14.0038681 C14.5836551,13.9767465 14.4315261,14.0950956 14.405595,14.2695373 C14.138793,16.0608004 12.7120074,17.3607915 11.0132337,17.3607915 C9.85440256,17.3607915 8.78949959,16.7363766 8.15851,15.7291763 L8.97620335,15.8999196 C9.13870478,15.9338217 9.2948675,15.8204038 9.32656104,15.6471949 C9.35767833,15.4739861 9.25222528,15.3057084 9.09087635,15.2724227 L7.63873593,14.9697695 C7.47681075,14.935251 7.31949554,15.0492853 7.28837825,15.2224942 L7.00544136,16.7752099 C6.97432407,16.9484188 7.07977712,17.11608 7.24227855,17.1499821 C7.26129467,17.1542969 7.2803108,17.1561461 7.29932692,17.1561461 C7.43935475,17.1561461 7.56440017,17.0501251 7.59205999,16.8972575 L7.72286788,16.1797659 C8.46968295,17.3059317 9.68959614,18 11.0132337,18 C13.0070455,18 14.6827694,16.4731731 14.9962474,14.3700107 C15.0221784,14.1955691 14.9109629,14.0316062 14.7478853,14.0038681 M14.7603785,10.853391 C14.5976804,10.8194037 14.4413062,10.9324888 14.4091115,11.1055152 L14.272859,11.847675 C13.5289318,10.7057006 12.3049589,10 10.9769282,10 C8.99178103,10 7.3216818,11.5257222 7.00375929,13.6279932 C6.97788856,13.8028735 7.08827034,13.9672486 7.25096847,13.9956743 C7.26706581,13.9981461 7.28316316,14 7.29868559,14 C7.44241186,14 7.56889098,13.8875328 7.59303699,13.7305732 C7.86324237,11.9403677 9.28613242,10.6414336 10.9769282,10.6414336 C12.1296129,10.6414336 13.1897379,11.2649467 13.8198338,12.2703538 L13.0258899,12.101653 C12.8649165,12.0670477 12.7073925,12.1801329 12.6757727,12.3537772 C12.643578,12.5268036 12.7487857,12.6955044 12.910334,12.7301097 L14.3573701,13.0378495 C14.3769168,13.0421752 14.3958887,13.044029 14.4154355,13.044029 C14.4740758,13.044029 14.5315663,13.0254905 14.5810081,12.9902673 C14.6465473,12.942685 14.6919648,12.8691488 14.7080621,12.7863433 L14.9943649,11.2303414 C15.0259847,11.056697 14.9213519,10.8879963 14.7603785,10.853391" id="Fill-1" fill="#DAAD05" transform="translate(11.000000, 14.000000) rotate(-360.000000) translate(-11.000000, -14.000000) "></path>
                    <circle id="Oval" fill-opacity="0.3" fill="#059750" fill-rule="nonzero" cx="18.5" cy="6.5" r="5.5"></circle>
                    <circle id="Oval" fill="#FFFFFF" fill-rule="nonzero" cx="18.5" cy="6.5" r="4.5"></circle>
                    <rect id="Rectangle" fill="#64BE93" fill-rule="nonzero" x="18" y="4" width="1" height="5"></rect>
                    <rect id="Rectangle" fill="#64BE93" fill-rule="nonzero" transform="translate(18.500000, 6.500000) rotate(-90.000000) translate(-18.500000, -6.500000) " x="18" y="4" width="1" height="5"></rect>
                </g>
            </g>
        </g>
    </g>
</svg>