<?xml version="1.0" encoding="UTF-8"?>
<svg width="36px" height="36px" viewBox="0 0 36 36" version="1.1" xmlns="http://www.w3.org/2000/svg" xmlns:xlink="http://www.w3.org/1999/xlink">
    <title>Icon / Preferences / Mono</title>
    <defs>
        <filter x="-18.1%" y="-8.8%" width="137.2%" height="118.1%" filterUnits="objectBoundingBox" id="filter-1">
            <feOffset dx="0" dy="1" in="SourceAlpha" result="shadowOffsetOuter1"></feOffset>
            <feGaussianBlur stdDeviation="4" in="shadowOffsetOuter1" result="shadowBlurOuter1"></feGaussianBlur>
            <feColorMatrix values="0 0 0 0 0   0 0 0 0 0   0 0 0 0 0  0 0 0 0.1 0" type="matrix" in="shadowBlurOuter1" result="shadowMatrixOuter1"></feColorMatrix>
            <feMerge>
                <feMergeNode in="shadowMatrixOuter1"></feMergeNode>
                <feMergeNode in="SourceGraphic"></feMergeNode>
            </feMerge>
        </filter>
        <linearGradient x1="50%" y1="0%" x2="50%" y2="97.4589445%" id="linearGradient-2">
            <stop stop-color="#F2F2F2" offset="0%"></stop>
            <stop stop-color="#BDBDBD" offset="100%"></stop>
        </linearGradient>
        <linearGradient x1="50%" y1="0%" x2="50%" y2="100%" id="linearGradient-3">
            <stop stop-color="#A6A6A6" stop-opacity="0.7" offset="0%"></stop>
            <stop stop-color="#888888" stop-opacity="0.7" offset="100%"></stop>
        </linearGradient>
    </defs>
    <g id="Page-1" stroke="none" stroke-width="1" fill="none" fill-rule="evenodd">
        <g id="Task---4" transform="translate(-1023.000000, -692.000000)">
            <g id="Group-6" filter="url(#filter-1)" transform="translate(1013.000000, 412.000000)">
                <g id="Group" transform="translate(16.000000, 285.000000)">
                    <path d="M12.9906311,2.5 C13.1334635,2.5 13.2617894,2.5545978 13.3540186,2.64575223 C13.4267583,2.7176443 13.4765426,2.81176407 13.4935467,2.91688188 L13.5,2.99760691 L13.5,5.33268923 C14.1642239,5.48782784 14.7915483,5.73388194 15.3682866,6.05856159 L15.6523768,6.22739664 L17.3068775,4.5728959 C17.4038991,4.47587431 17.5317981,4.42823559 17.6596742,4.42884607 C17.7638322,4.42934332 17.868061,4.46175353 17.956644,4.52575561 L18.0199022,4.57967564 L19.4203244,5.98009781 C19.5211538,6.08092723 19.5730319,6.21016672 19.5736505,6.33974202 C19.5741405,6.44237866 19.5425137,6.54450327 19.4798779,6.63121316 L19.4271041,6.69312246 L17.7726034,8.34762319 C18.1231501,8.90711919 18.3971197,9.51948246 18.5822221,10.1710264 L18.6673108,10.5 L21.0023931,10.5 C21.1389885,10.5 21.262504,10.556709 21.3520735,10.6473345 C21.4253476,10.7214726 21.4760561,10.8182835 21.4934085,10.926369 L21.5,11.0093689 L21.5,12.9906311 C21.5,13.1334635 21.4454022,13.2617894 21.3542478,13.3540186 C21.2823557,13.4267583 21.1882359,13.4765426 21.0831181,13.4935467 L21.0023931,13.5 L18.6673108,13.5 C18.5121722,14.1642239 18.2661181,14.7915483 17.9414384,15.3682866 L17.7726034,15.6523768 L19.4271041,17.3068775 C19.5241188,17.4038922 19.5717644,17.5317701 19.5711539,17.6596246 C19.5706568,17.7637414 19.5382555,17.8679251 19.4742711,17.9564655 L19.4203661,18.0196923 L18.0199439,19.4197842 C17.9190971,19.5206072 17.7898325,19.5724748 17.6602377,19.5730987 C17.5575935,19.5735929 17.4554567,19.5419848 17.3687371,19.4793671 L17.3068211,19.4266067 L15.652323,17.7726371 C15.092839,18.1231693 14.4804911,18.3971281 13.8289647,18.5822246 L13.5,18.6673108 L13.5,21.0023931 C13.5,21.1389885 13.443291,21.262504 13.3526655,21.3520735 C13.2785274,21.4253476 13.1817165,21.4760561 13.073631,21.4934085 L12.9906311,21.5 L11.0093689,21.5 C10.8665365,21.5 10.7382106,21.4454022 10.6459814,21.3542478 C10.5732417,21.2823557 10.5234574,21.1882359 10.5064533,21.0831181 L10.5,21.0023931 L10.5,18.6673108 C9.83579431,18.5121764 9.20848613,18.2661316 8.63176095,17.9414652 L8.34767697,17.7726371 L6.69317893,19.4266067 C6.59614735,19.5236073 6.4682318,19.5712185 6.34034608,19.5706028 C6.2361722,19.5701013 6.13192428,19.5376966 6.04332541,19.4737002 L5.98005612,19.4197842 L4.57963395,18.0196923 C4.47883264,17.9189147 4.42696788,17.7897328 4.42634946,17.6602086 C4.42585949,17.5575892 4.45749073,17.4554814 4.5201248,17.3687811 L4.5728959,17.3068775 L6.22739664,15.6523768 C5.87684987,15.0928808 5.60288031,14.4805175 5.41777793,13.8289736 L5.33268923,13.5 L2.99760691,13.5 C2.86101149,13.5 2.73749602,13.443291 2.64792654,13.3526655 C2.57465239,13.2785274 2.52394389,13.1817165 2.50659146,13.073631 L2.5,12.9906311 L2.5,11.0093689 C2.5,10.8665365 2.5545978,10.7382106 2.64575223,10.6459814 C2.7176443,10.5732417 2.81176407,10.5234574 2.91688188,10.5064533 L2.99760691,10.5 L5.33268923,10.5 C5.48782784,9.83577607 5.73388194,9.20845167 6.05856159,8.63171343 L6.22739664,8.34762319 L4.5728959,6.69312246 C4.47587431,6.59610086 4.42823559,6.46820191 4.42884607,6.34032584 C4.42934332,6.23616778 4.46175353,6.13193904 4.52575561,6.04335598 L4.57967564,5.98009781 L5.98009781,4.57967564 C6.08092723,4.47884622 6.21016672,4.42696805 6.33974202,4.42634946 C6.44237866,4.42585947 6.54450327,4.45748631 6.63121316,4.52012215 L6.69312246,4.5728959 L8.34762319,6.22739664 C8.90711919,5.87684987 9.51948246,5.60288031 10.1710264,5.41777793 L10.5,5.33268923 L10.5,2.99760691 C10.5,2.88833057 10.5362937,2.7874254 10.5972115,2.70557482 L10.6473345,2.64792654 L12.9906311,2.5 Z M12,9.5 C11.31,9.5 10.6849603,9.77993294 10.2324466,10.2324466 C9.77993294,10.6849603 9.5,11.31 9.5,12 C9.5,12.69 9.77993294,13.3150397 10.2324466,13.7675534 C10.6849603,14.2200671 11.31,14.5 12,14.5 C12.69,14.5 13.3150397,14.2200671 13.7675534,13.7675534 C14.2200671,13.3150397 14.5,12.69 14.5,12 C14.5,11.31 14.2200671,10.6849603 13.7675534,10.2324466 C13.3150397,9.77993294 12.69,9.5 12,9.5 Z" id="ic_preferences-copy-2" stroke="url(#linearGradient-3)" fill="url(#linearGradient-2)"></path>
                    <path d="M12,8 C14.209139,8 16,9.790861 16,12 C16,14.209139 14.209139,16 12,16 C9.790861,16 8,14.209139 8,12 C8,9.790861 9.790861,8 12,8 Z M12,10 C10.8954305,10 10,10.8954305 10,12 C10,13.1045695 10.8954305,14 12,14 C13.1045695,14 14,13.1045695 14,12 C14,10.8954305 13.1045695,10 12,10 Z" id="Combined-Shape" fill="#D9D9D9" fill-rule="nonzero" style="mix-blend-mode: multiply;"></path>
                    <path d="M15.9690172,12.4997119 C15.989466,12.6636015 16,12.8305706 16,13 C16,15.209139 14.209139,17 12,17 C9.790861,17 8,15.209139 8,13 C8,12.8305706 8.01053401,12.6636015 8.03098281,12.4997119 C8.27715974,14.4733044 9.96029044,16 12,16 C14.0083082,16 15.6709321,14.5199496 15.9566297,12.5910907 Z" id="Combined-Shape" fill-opacity="0.7" fill="#FFFFFF" fill-rule="nonzero"></path>
                </g>
            </g>
        </g>
    </g>
</svg>