<?xml version="1.0" encoding="UTF-8"?>
<svg width="32px" height="22px" viewBox="0 0 32 22" version="1.1" xmlns="http://www.w3.org/2000/svg" xmlns:xlink="http://www.w3.org/1999/xlink">
    <title>Icon / Stream / Mono</title>
    <defs>
        <filter x="-18.1%" y="-8.8%" width="137.2%" height="118.1%" filterUnits="objectBoundingBox" id="filter-1">
            <feOffset dx="0" dy="1" in="SourceAlpha" result="shadowOffsetOuter1"></feOffset>
            <feGaussianBlur stdDeviation="4" in="shadowOffsetOuter1" result="shadowBlurOuter1"></feGaussianBlur>
            <feColorMatrix values="0 0 0 0 0   0 0 0 0 0   0 0 0 0 0  0 0 0 0.1 0" type="matrix" in="shadowBlurOuter1" result="shadowMatrixOuter1"></feColorMatrix>
            <feMerge>
                <feMergeNode in="shadowMatrixOuter1"></feMergeNode>
                <feMergeNode in="SourceGraphic"></feMergeNode>
            </feMerge>
        </filter>
        <linearGradient x1="50%" y1="0%" x2="50%" y2="97.4589445%" id="linearGradient-2">
            <stop stop-color="#FFFFFF" offset="0%"></stop>
            <stop stop-color="#EFEFEF" offset="100%"></stop>
        </linearGradient>
        <linearGradient x1="50%" y1="0%" x2="50%" y2="100%" id="linearGradient-3">
            <stop stop-color="#A6A6A6" stop-opacity="0.5" offset="0%"></stop>
            <stop stop-color="#888888" stop-opacity="0.5" offset="100%"></stop>
        </linearGradient>
    </defs>
    <g id="Page-1" stroke="none" stroke-width="1" fill="none" fill-rule="evenodd">
        <g id="Task---4" transform="translate(-1021.000000, -663.000000)">
            <g id="Group-6" filter="url(#filter-1)" transform="translate(1013.000000, 412.000000)">
                <g id="Group" transform="translate(16.000000, 253.000000)">
                    <path d="M12,6.5 C13.519375,6.5 14.894345,7.11536319 15.8894909,8.11050911 C16.8846368,9.10565503 17.5,10.480625 17.5,12 C17.5,13.519375 16.8846368,14.894345 15.8894909,15.8894909 C14.894345,16.8846368 13.519375,17.5 12,17.5 C10.480625,17.5 9.10565503,16.8846368 8.11050911,15.8894909 C7.11536319,14.894345 6.5,13.519375 6.5,12 C6.5,10.480625 7.11536319,9.10565503 8.11050911,8.11050911 C9.10565503,7.11536319 10.480625,6.5 12,6.5 Z" id="Fill-57-Copy" stroke="url(#linearGradient-3)" fill="url(#linearGradient-2)"></path>
                    <path d="M3.51471863,3.51471863 L4.22182541,4.22182541 C2.23121694,6.21243388 1,8.96243388 1,12 C1,15.0375661 2.23121694,17.7875661 4.22182541,19.7781746 L3.51521728,20.48578 C1.34335137,18.3141677 0,15.3139621 0,12 C0,8.6862915 1.34314575,5.6862915 3.51471863,3.51471863 Z M24,12 C24,15.3134549 22.6570599,18.3132493 20.48578,20.4847827 L19.7781746,19.7781746 C21.7687831,17.7875661 23,15.0375661 23,12 C23,8.96294141 21.7691945,6.21335285 19.7791723,4.22282327 L20.4862836,3.51572095 C22.6572675,5.68721459 24,8.6868013 24,12 Z M5.63603897,5.63603897 L6.34314575,6.34314575 C4.8954305,7.790861 4,9.790861 4,12 C4,14.2096473 4.89584262,16.2100594 6.34414518,17.6578535 L5.63603897,18.363961 C4.00735931,16.7352814 3,14.4852814 3,12 C3,9.51471863 4.00735931,7.26471863 5.63603897,5.63603897 Z M21,12 C21,14.4847799 19.9930472,16.7343734 18.3649468,18.3629751 L17.6568542,17.6568542 C19.1045695,16.209139 20,14.209139 20,12 C20,9.790861 19.1045695,7.790861 17.6568542,6.34314575 L18.3649468,5.63702493 C19.9930472,7.26562663 21,9.5152201 21,12 Z" id="Combined-Shape" fill-opacity="0.5" fill="#777777" fill-rule="nonzero"></path>
                    <polygon id="Rectangle-105" fill="#F0373A" points="10 9 14.9998 12 10 15.0000102"></polygon>
                </g>
            </g>
        </g>
    </g>
</svg>